HIERARCHY
ROOT Hips
{
	OFFSET -0.001795 -0.223333 0.028219
	CHANNELS 6 Xposition Yposition Zposition Zrotation Yrotation Xrotation 
	JOINT LeftUpLeg
	{
		OFFSET 0.069520 -0.091406 -0.006815
		CHANNELS 3 Zrotation Yrotation Xrotation
		JOINT LeftLeg
		{
			OFFSET 0.034277 -0.375199 -0.004496
			CHANNELS 3 Zrotation Yrotation Xrotation
			JOINT LeftFoot
			{
				OFFSET -0.013596 -0.397961 -0.043693
				CHANNELS 3 Zrotation Yrotation Xrotation
				JOINT LeftToe
				{
					OFFSET 0.026358 -0.055791 0.119288
					CHANNELS 3 Zrotation Yrotation Xrotation
					End Site
					{
						OFFSET 0.000000 0.000000 0.000000
					}
				}
			}
		}
	}
	JOINT RightUpLeg
	{
		OFFSET -0.067670 -0.090522 -0.004320
		CHANNELS 3 Zrotation Yrotation Xrotation
		JOINT RightLeg
		{
			OFFSET -0.038290 -0.382569 -0.008850
			CHANNELS 3 Zrotation Yrotation Xrotation
			JOINT RightFoot
			{
				OFFSET 0.015774 -0.398415 -0.042312
				CHANNELS 3 Zrotation Yrotation Xrotation
				JOINT RightToe
				{
					OFFSET -0.025372 -0.048144 0.123348
					CHANNELS 3 Zrotation Yrotation Xrotation
					End Site
					{
						OFFSET 0.000000 0.000000 0.000000
					}
				}
			}
		}
	}
	JOINT Spine
	{
		OFFSET -0.002533 0.108963 -0.026696
		CHANNELS 3 Zrotation Yrotation Xrotation
		JOINT Spine1
		{
			OFFSET 0.005487 0.135180 0.001092
			CHANNELS 3 Zrotation Yrotation Xrotation
			JOINT Spine2
			{
				OFFSET 0.001457 0.052922 0.025425
				CHANNELS 3 Zrotation Yrotation Xrotation
				JOINT Neck
				{
					OFFSET -0.002778 0.213870 -0.042857
					CHANNELS 3 Zrotation Yrotation Xrotation
					JOINT Head
					{
						OFFSET 0.005152 0.064970 0.051349
						CHANNELS 3 Zrotation Yrotation Xrotation
						End Site
						{
							OFFSET 0.000000 0.000000 0.000000
						}
					}
				}
				JOINT LeftShoulder
				{
					OFFSET 0.078845 0.121749 -0.034090
					CHANNELS 3 Zrotation Yrotation Xrotation
					JOINT LeftArm
					{
						OFFSET 0.090977 0.030469 -0.008868
						CHANNELS 3 Zrotation Yrotation Xrotation
						JOINT LeftForeArm
						{
							OFFSET 0.259612 -0.012772 -0.027456
							CHANNELS 3 Zrotation Yrotation Xrotation
							JOINT LeftHand
							{
								OFFSET 0.249234 0.008986 -0.001171
								CHANNELS 3 Zrotation Yrotation Xrotation
								End Site
								{
									OFFSET 0.000000 0.000000 0.000000
								}
							}
						}
					}
				}
				JOINT RightShoulder
				{
					OFFSET -0.081759 0.118833 -0.038615
					CHANNELS 3 Zrotation Yrotation Xrotation
					JOINT RightArm
					{
						OFFSET -0.096012 0.032551 -0.009143
						CHANNELS 3 Zrotation Yrotation Xrotation
						JOINT RightForeArm
						{
							OFFSET -0.253742 -0.013329 -0.021401
							CHANNELS 3 Zrotation Yrotation Xrotation
							JOINT RightHand
							{
								OFFSET -0.255298 0.007772 -0.005559
								CHANNELS 3 Zrotation Yrotation Xrotation
								End Site
								{
									OFFSET 0.000000 0.000000 0.000000
								}
							}
						}
					}
				}
			}
		}
	}
}
MOTION
Frames: 6
Frame Time: 0.050000
0.000000 0.919417 0.000000 -2.259002 -4.971850 5.589913 8.649051 -0.162979 -2.652882 0.544197 0.002902 -1.755071 -0.976776 -2.781732 -1.453618 0.000000 0.000000 0.000000 -2.749459 0.528283 -5.321981 -0.848956 0.161783 1.655001 2.358050 6.683658 -0.758802 0.000000 0.000000 0.000000 4.204671 0.085617 -2.449286 -2.381621 1.093625 -2.896010 -2.243537 4.543707 5.012169 7.895258 -3.161143 -17.509820 0.000000 0.000000 0.000000 -21.250834 -1.863990 -1.679011 -48.303220 0.589546 -5.745941 -10.645858 -18.458368 2.328038 0.000000 0.000000 0.000000 20.038816 -4.859469 -3.984457 55.669517 -1.980201 -6.336409 7.543394 20.178726 1.959147 0.000000 0.000000 0.000000
0.000161 0.920429 0.000947 -2.468545 -5.618806 6.327324 9.603940 -0.143527 -1.638416 -0.127330 0.167514 -4.593407 -1.763258 -3.698487 0.263472 0.000000 0.000000 0.000000 -2.541590 0.642406 -6.661692 -1.310954 0.235104 2.095692 3.405305 7.863689 1.193058 0.000000 0.000000 0.000000 4.631620 0.116212 -2.940001 -2.434099 1.126893 -1.806545 -2.945863 5.123098 3.056293 9.475419 -3.839851 -18.310639 0.000000 0.000000 0.000000 -21.879654 -1.882676 -1.950519 -46.699902 1.774060 -5.753527 -12.175830 -19.089157 2.630995 0.000000 0.000000 0.000000 19.794943 -5.489602 -4.248717 56.207411 -4.006830 -7.124269 7.149566 20.560499 1.934027 0.000000 0.000000 0.000000
0.000453 0.920458 0.001535 -1.882450 -4.960864 6.617189 9.499590 -0.174101 -2.420165 -0.525481 0.171928 -3.778762 -1.994770 -4.436397 -0.220393 0.000000 0.000000 0.000000 -2.761491 0.682648 -7.195627 -1.584528 0.283004 2.377329 2.881634 6.935104 0.686478 0.000000 0.000000 0.000000 4.170559 0.121049 -3.068091 -1.644659 0.762689 -3.640347 -3.860777 5.269963 4.135424 10.105743 -4.083818 -18.837478 0.000000 0.000000 0.000000 -21.032653 -2.149589 -1.826959 -47.714555 1.070823 -5.698029 -10.849968 -16.900663 2.119086 0.000000 0.000000 0.000000 20.541034 -5.744950 -4.304288 56.071534 -4.145666 -7.295461 4.448267 19.965498 1.479503 0.000000 0.000000 0.000000
0.000749 0.921668 0.001841 -1.773292 -5.051795 7.201253 10.106116 -0.182418 -2.708080 -1.398889 0.270623 -4.830305 -2.790836 -5.605304 0.867012 0.000000 0.000000 0.000000 -3.073871 0.737380 -7.878918 -1.693363 0.313594 2.692716 3.139518 7.454379 0.882098 0.000000 0.000000 0.000000 3.889532 0.135102 -3.338888 -1.752329 0.807752 -3.762375 -3.417372 4.761304 3.351995 10.465656 -4.450633 -18.145154 0.000000 0.000000 0.000000 -20.529094 -1.323631 -2.069653 -47.473102 1.783762 -5.900208 -11.950350 -17.246224 2.338025 0.000000 0.000000 0.000000 19.366523 -5.710871 -4.309799 56.079963 -5.131893 -7.614206 4.426320 19.826299 1.433190 0.000000 0.000000 0.000000
0.001277 0.921741 0.001786 -1.501175 -4.782487 7.136414 9.700348 -0.193918 -2.879989 -1.311928 0.259817 -4.686122 -2.541619 -5.163534 0.681912 0.000000 0.000000 0.000000 -3.465324 0.702816 -7.521198 -1.612518 0.277705 2.230881 2.697168 6.466178 0.684642 0.000000 0.000000 0.000000 3.740224 0.151612 -3.545084 -1.647757 0.766285 -3.447661 -3.597591 4.814584 3.004606 10.927048 -4.633875 -18.383057 0.000000 0.000000 0.000000 -20.743419 -1.537378 -2.067624 -46.998175 1.360830 -5.622433 -11.674757 -16.943864 2.245580 0.000000 0.000000 0.000000 18.919419 -6.141771 -4.434588 55.992952 -5.183872 -7.585215 4.053374 18.694070 1.291114 0.000000 0.000000 0.000000
0.002156 0.921679 0.001411 -1.389183 -4.696173 7.382434 9.466995 -0.204950 -2.838042 -1.356185 0.271667 -5.037167 -2.643235 -5.186621 1.060662 0.000000 0.000000 0.000000 -3.822883 0.713784 -7.711507 -1.861404 0.295380 2.047912 3.076951 7.020948 1.239503 0.000000 0.000000 0.000000 3.576882 0.139162 -3.428052 -1.502688 0.702960 -4.106984 -3.665402 4.844931 3.245908 11.029353 -4.737453 -18.170022 0.000000 0.000000 0.000000 -21.307513 -1.619349 -2.109950 -46.219574 1.414073 -5.535250 -12.412285 -17.569307 2.442227 0.000000 0.000000 0.000000 18.650853 -5.929090 -4.264663 55.371922 -5.345103 -7.578813 3.638200 19.081927 1.263151 0.000000 0.000000 0.000000
